<?xml version="1.0" standalone="no"?>
<!DOCTYPE svg PUBLIC "-//W3C//DTD SVG 20010904//EN"
 "http://www.w3.org/TR/2001/REC-SVG-20010904/DTD/svg10.dtd">
<svg version="1.0" xmlns="http://www.w3.org/2000/svg"
 width="600.000000pt" height="600.000000pt" viewBox="0 0 600.000000 600.000000"
 preserveAspectRatio="xMidYMid meet">

<g transform="translate(0.000000,600.000000) scale(0.100000,-0.100000)"
fill="#000000" stroke="none">
<path d="M2785 5128 c-421 -42 -833 -217 -1165 -496 -529 -442 -816 -1143
-749 -1828 73 -749 519 -1395 1191 -1724 354 -173 751 -247 1134 -209 439 42
845 213 1184 497 529 442 816 1143 749 1828 -73 749 -519 1395 -1191 1724
-357 175 -761 248 -1153 208z m447 -383 c505 -67 959 -352 1240 -779 435 -661
372 -1542 -152 -2131 -590 -663 -1570 -789 -2301 -296 -491 331 -779 871 -779
1461 0 590 288 1129 779 1461 354 239 788 341 1213 284z"/>
<path d="M3354 4143 c-48 -71 -225 -250 -319 -325 -115 -90 -361 -258 -379
-258 -4 0 -6 27 -6 60 l0 60 -105 0 -105 0 0 220 0 220 -130 0 -130 0 0 -220
0 -220 -175 0 -175 0 0 -130 0 -130 160 0 c102 0 160 -4 160 -10 0 -25 -87
-227 -149 -345 -77 -148 -153 -275 -250 -420 -37 -55 -70 -105 -74 -111 -8
-14 203 -170 212 -157 28 37 207 313 242 373 l44 75 3 -463 2 -462 130 0 130
0 0 453 1 452 22 -25 c12 -14 36 -44 54 -65 l31 -40 81 63 80 62 3 -147 3
-148 238 -3 c130 -1 237 -6 237 -10 0 -14 -107 -142 -156 -188 -92 -84 -217
-159 -341 -204 -35 -12 -63 -25 -63 -29 0 -13 69 -233 74 -239 11 -10 115 28
224 83 176 88 331 218 443 373 23 31 44 59 46 62 3 3 14 -8 26 -25 89 -122
260 -282 402 -377 91 -60 222 -131 235 -126 10 3 90 169 105 217 4 15 -9 26
-67 56 -40 20 -107 60 -148 89 -76 52 -287 253 -309 294 l-12 22 226 0 225 0
0 345 0 345 -280 0 -280 0 0 50 0 50 188 2 187 3 0 58 c0 31 2 57 5 57 2 0 42
-18 88 -41 125 -61 225 -100 232 -92 4 5 24 55 45 113 21 58 40 110 42 116 2
6 -22 22 -54 34 -108 43 -267 127 -373 197 -100 66 -264 196 -304 241 -18 20
-18 22 1 49 11 15 23 33 26 40 5 7 -34 33 -109 72 -64 34 -117 61 -118 61 -2
0 -20 -26 -42 -57z m126 -419 c41 -37 103 -88 138 -114 34 -27 58 -50 52 -52
-5 -1 -127 -2 -270 0 l-260 3 88 73 c48 40 105 92 127 115 21 22 42 41 45 41
3 0 39 -30 80 -66z m-894 -389 c24 -44 47 -81 51 -82 5 -2 60 26 123 62 63 36
115 65 117 65 2 0 3 -20 3 -45 l0 -45 195 0 195 0 0 -50 0 -50 -280 0 -279 0
-3 -144 -3 -143 -132 169 -133 169 0 83 c0 45 3 86 7 90 4 4 27 6 52 4 l45 -3
42 -80z m684 -485 l0 -80 -145 0 -145 0 0 80 0 80 145 0 145 0 0 -80z m570 0
l0 -80 -150 0 -150 0 0 80 0 80 150 0 150 0 0 -80z"/>
</g>
</svg>
