<svg width="70" height="70" viewBox="0 0 70 70" fill="none" xmlns="http://www.w3.org/2000/svg">
<g clip-path="url(#clip0_487_9)">
<rect width="70" height="70" rx="10" fill="white"/>
<path d="M14 57C14 53.717 14.5432 50.4661 15.5985 47.4329C16.6539 44.3998 18.2007 41.6438 20.1508 39.3223C22.1008 37.0009 24.4158 35.1594 26.9636 33.903C29.5115 32.6466 32.2422 32 35 32C37.7578 32 40.4885 32.6466 43.0364 33.903C45.5842 35.1594 47.8992 37.0009 49.8492 39.3223C51.7993 41.6438 53.3461 44.3998 54.4015 47.4329C55.4568 50.4661 56 53.717 56 57L35 57H14Z" fill="#FFD700"/>
<circle cx="35" cy="21" r="10" fill="#20B2AA"/>
<path d="M20.1663 60.08C20.4383 60.144 20.6543 60.256 20.8143 60.416C20.9743 60.56 21.0543 60.744 21.0543 60.968C20.2223 62.44 19.1983 63.584 17.9823 64.4C16.7663 65.2 15.4463 65.6 14.0223 65.6C12.6303 65.6 11.4223 65.248 10.3983 64.544C9.39031 63.824 8.60631 62.816 8.04631 61.52C7.50231 60.224 7.23031 58.688 7.23031 56.912C7.23031 55.248 7.45431 53.736 7.90231 52.376C8.36631 51 9.01431 49.808 9.84631 48.8C10.6783 47.792 11.6703 47.016 12.8223 46.472C13.9743 45.928 15.2383 45.656 16.6143 45.656C18.2143 45.656 19.4783 46.048 20.4063 46.832C21.3343 47.616 21.7983 48.688 21.7983 50.048C21.7983 50.784 21.6463 51.448 21.3423 52.04C21.0543 52.616 20.6543 53.072 20.1423 53.408C19.6303 53.728 19.0463 53.888 18.3903 53.888C18.2143 53.888 18.0223 53.872 17.8143 53.84C17.6223 53.808 17.3903 53.76 17.1183 53.696C17.3583 53.392 17.5743 53.016 17.7663 52.568C17.9583 52.12 18.1103 51.648 18.2223 51.152C18.3343 50.64 18.3903 50.168 18.3903 49.736C18.3903 48.984 18.2143 48.408 17.8623 48.008C17.5103 47.608 17.0063 47.408 16.3503 47.408C15.6303 47.408 14.9503 47.664 14.3103 48.176C13.6703 48.672 13.1023 49.368 12.6063 50.264C12.1103 51.144 11.7183 52.16 11.4303 53.312C11.1583 54.448 11.0223 55.664 11.0223 56.96C11.0223 58.256 11.1903 59.384 11.5263 60.344C11.8783 61.304 12.3663 62.048 12.9903 62.576C13.6303 63.104 14.3823 63.368 15.2463 63.368C16.1583 63.368 17.0463 63.08 17.9103 62.504C18.7743 61.912 19.5263 61.104 20.1663 60.08ZM34.5309 60.824C34.1789 60.824 33.8749 60.784 33.6189 60.704C33.3629 60.608 33.2189 60.512 33.1869 60.416C32.7069 59.168 32.1949 57.848 31.6509 56.456C31.1069 55.048 30.5469 53.68 29.9709 52.352C29.3949 51.024 28.8029 49.832 28.1949 48.776C27.6029 47.72 26.9949 46.912 26.3709 46.352C26.5629 46.224 26.7869 46.112 27.0429 46.016C27.2989 45.92 27.5549 45.848 27.8109 45.8C28.0829 45.752 28.3149 45.728 28.5069 45.728C28.9389 45.728 29.3229 45.8 29.6589 45.944C29.9949 46.088 30.3229 46.392 30.6429 46.856C30.9789 47.304 31.3469 47.984 31.7469 48.896C32.1629 49.792 32.6669 50.992 33.2589 52.496C33.8509 54 34.5789 55.88 35.4429 58.136C35.8909 57.48 36.3709 56.76 36.8829 55.976C37.4109 55.176 37.9389 54.344 38.4669 53.48C38.9949 52.616 39.4909 51.736 39.9549 50.84C40.4189 49.944 40.8189 49.064 41.1549 48.2C41.5069 47.336 41.7549 46.52 41.8989 45.752C42.3629 46.136 42.6909 46.512 42.8829 46.88C43.0749 47.232 43.1549 47.592 43.1229 47.96C43.1069 48.328 43.0109 48.728 42.8349 49.16C42.6589 49.592 42.4269 50.072 42.1389 50.6C41.5469 51.704 40.9149 52.808 40.2429 53.912C39.5869 55 38.9069 56.088 38.2029 57.176C37.5149 58.264 36.8269 59.368 36.1389 60.488C35.8669 60.6 35.5869 60.688 35.2989 60.752C35.0269 60.8 34.7709 60.824 34.5309 60.824ZM29.0829 65.12C28.4749 65.12 27.9789 65.08 27.5949 65C27.2269 64.92 26.9389 64.808 26.7309 64.664C26.5389 64.52 26.4029 64.36 26.3229 64.184C26.2589 64.008 26.2269 63.816 26.2269 63.608C26.2269 63.4 26.2669 62.984 26.3469 62.36C26.4269 61.736 26.5229 60.968 26.6349 60.056C26.7629 59.128 26.8909 58.136 27.0189 57.08C27.1629 56.024 27.2909 54.96 27.4029 53.888C27.5309 52.8 27.6349 51.776 27.7149 50.816C27.7949 49.84 27.8349 49.008 27.8349 48.32C27.8349 47.792 27.8029 47.36 27.7389 47.024C27.6909 46.688 27.6109 46.416 27.4989 46.208C28.2509 46.4 28.8029 46.648 29.1549 46.952C29.5069 47.24 29.7389 47.576 29.8509 47.96C29.9629 48.344 30.0189 48.768 30.0189 49.232C30.0189 50.528 29.9309 51.904 29.7549 53.36C29.5949 54.816 29.4269 56.36 29.2509 57.992C29.0749 59.608 28.9869 61.32 28.9869 63.128C28.9869 63.464 28.9949 63.8 29.0109 64.136C29.0429 64.472 29.0669 64.8 29.0829 65.12ZM43.8669 65.744C42.9229 65.504 42.1949 65.216 41.6829 64.88C41.1709 64.528 40.8189 64.112 40.6269 63.632C40.4349 63.136 40.3389 62.56 40.3389 61.904C40.3389 61.44 40.3709 60.872 40.4349 60.2C40.5149 59.528 40.6109 58.768 40.7229 57.92C40.8509 57.072 40.9789 56.168 41.1069 55.208C41.2509 54.232 41.3789 53.224 41.4909 52.184C41.6189 51.128 41.7149 50.056 41.7789 48.968C41.8589 47.88 41.8989 46.808 41.8989 45.752C42.5709 45.784 43.1149 45.872 43.5309 46.016C43.9469 46.16 44.2669 46.36 44.4909 46.616C44.7309 46.856 44.8909 47.144 44.9709 47.48C45.0669 47.8 45.1149 48.168 45.1149 48.584C45.1149 49.096 45.0589 49.8 44.9469 50.696C44.8509 51.592 44.7229 52.592 44.5629 53.696C44.4029 54.8 44.2429 55.928 44.0829 57.08C43.9229 58.232 43.7869 59.336 43.6749 60.392C43.5789 61.432 43.5309 62.344 43.5309 63.128C43.5309 64.344 43.6429 65.216 43.8669 65.744ZM54.3011 49.88C54.3011 50.6 54.4931 51.248 54.8771 51.824C55.2771 52.4 55.7811 52.936 56.3891 53.432C56.9971 53.928 57.6451 54.424 58.3331 54.92C59.0211 55.4 59.6691 55.912 60.2771 56.456C60.8851 56.984 61.3811 57.576 61.7651 58.232C62.1651 58.888 62.3651 59.64 62.3651 60.488C62.3651 61.496 62.0771 62.384 61.5011 63.152C60.9411 63.92 60.1571 64.52 59.1491 64.952C58.1571 65.384 57.0051 65.6 55.6931 65.6C54.4771 65.6 53.3971 65.416 52.4531 65.048C51.5251 64.68 50.7971 64.168 50.2691 63.512C49.7411 62.84 49.4771 62.08 49.4771 61.232C49.4771 60.608 49.6131 60.056 49.8851 59.576C50.1731 59.096 50.5651 58.72 51.0611 58.448C51.5571 58.176 52.1251 58.04 52.7651 58.04C52.9411 58.04 53.0931 58.048 53.2211 58.064C53.3491 58.08 53.4691 58.104 53.5811 58.136C53.0851 58.872 52.8371 59.656 52.8371 60.488C52.8371 61.432 53.1171 62.2 53.6771 62.792C54.2531 63.368 54.9971 63.656 55.9091 63.656C56.7411 63.656 57.4211 63.424 57.9491 62.96C58.4771 62.496 58.7411 61.896 58.7411 61.16C58.7411 60.52 58.5491 59.944 58.1651 59.432C57.7971 58.904 57.3091 58.4 56.7011 57.92C56.1091 57.44 55.4771 56.952 54.8051 56.456C54.1331 55.96 53.4931 55.432 52.8851 54.872C52.2931 54.296 51.8051 53.656 51.4211 52.952C51.0531 52.248 50.8691 51.44 50.8691 50.528C50.8691 49.52 51.1251 48.64 51.6371 47.888C52.1491 47.136 52.8691 46.552 53.7971 46.136C54.7251 45.72 55.8051 45.512 57.0371 45.512C58.1251 45.512 59.0851 45.688 59.9171 46.04C60.7651 46.392 61.4291 46.88 61.9091 47.504C62.3891 48.112 62.6291 48.816 62.6291 49.616C62.6291 50.224 62.4771 50.776 62.1731 51.272C61.8851 51.752 61.4931 52.136 60.9971 52.424C60.5011 52.696 59.9331 52.832 59.2931 52.832C59.0851 52.832 58.8931 52.824 58.7171 52.808C58.5411 52.792 58.3891 52.768 58.2611 52.736C58.6291 52.352 58.9171 51.904 59.1251 51.392C59.3491 50.88 59.4611 50.376 59.4611 49.88C59.4611 49.096 59.2211 48.472 58.7411 48.008C58.2771 47.528 57.6691 47.288 56.9171 47.288C56.1331 47.288 55.5011 47.528 55.0211 48.008C54.5411 48.488 54.3011 49.112 54.3011 49.88Z" fill="black"/>
</g>
<defs>
<clipPath id="clip0_487_9">
<rect width="70" height="70" rx="10" fill="white"/>
</clipPath>
</defs>
</svg>
